<svg
    viewBox="0 0 173.2257 173.2819"
    xmlns="http://www.w3.org/2000/svg">
    <path
        d="M 33.116895,57.108217 A 16.570711,16.570711 0 0 1 15.669442,72.753133 16.570711,16.570711 0 0 1 0.02452843,55.305678 16.570711,16.570711 0 0 1 17.471981,39.660763 16.570711,16.570711 0 0 1 33.116895,57.108217 Z m 13.539954,86.611593 a 16.570711,16.570711 0 0 1 -17.447453,15.64491 16.570711,16.570711 0 0 1 -15.644913,-17.44745 16.570711,16.570711 0 0 1 17.447453,-15.64491 16.570711,16.570711 0 0 1 15.644913,17.44745 z m 86.576871,13.89266 a 16.570711,16.570711 0 0 1 -17.44747,15.64491 16.570711,16.570711 0 0 1 -15.64491,-17.44745 16.570711,16.570711 0 0 1 17.44745,-15.64491 16.570711,16.570711 0 0 1 15.64493,17.44745 z m 39.96747,-78.025446 a 16.570711,16.570711 0 0 1 -17.44746,15.644912 16.570711,16.570711 0 0 1 -15.64491,-17.447452 16.570711,16.570711 0 0 1 17.44745,-15.64491 16.570711,16.570711 0 0 1 15.64492,17.44745 z M 111.32559,17.471982 A 16.570711,16.570711 0 0 1 93.878142,33.116896 16.570711,16.570711 0 0 1 78.23323,15.669443 16.570711,16.570711 0 0 1 95.680682,0.02452954 16.570711,16.570711 0 0 1 111.32559,17.471982 Z M 34.571049,53.468749 a 18.227783,18.227783 0 0 1 0.200504,3.729486 18.227783,18.227783 0 0 1 -1.894456,7.139103 l 26.820584,4.30774 5.271511,-10.294458 z M 80.538786,60.850727 75.266757,71.146222 138.63808,81.3239 a 18.227783,18.227783 0 0 1 -0.18396,-3.629758 18.227783,18.227783 0 0 1 1.94457,-7.229537 z M 103.04387,32.791974 a 18.227783,18.227783 0 0 1 -9.255765,1.979723 18.227783,18.227783 0 0 1 -1.595255,-0.167433 l 4.185276,26.799916 11.419974,1.832446 z m -4.233333,44.19265 9.895523,63.363056 a 18.227783,18.227783 0 0 1 8.97309,-1.83709 18.227783,18.227783 0 0 1 1.90687,0.20928 l -9.355,-59.903322 z M 76.813431,19.511131 29.565154,43.455407 a 18.227783,18.227783 0 0 1 4.972306,9.812319 L 81.785219,29.322418 A 18.227783,18.227783 0 0 1 76.813431,19.511131 Z M 110.92762,24.9878 a 18.227783,18.227783 0 0 1 -7.79745,7.760766 L 140.5067,70.26927 a 18.227783,18.227783 0 0 1 7.79694,-7.760765 z m 32.91686,66.640376 -24.13496,47.117534 a 18.227783,18.227783 0 0 1 9.78803,5.02243 L 153.632,96.651127 a 18.227783,18.227783 0 0 1 -9.78752,-5.022951 z M 48.120611,140.13839 a 18.227783,18.227783 0 0 1 0.190684,3.67162 18.227783,18.227783 0 0 1 -1.92288,7.19128 l 52.289313,8.39071 a 18.227783,18.227783 0 0 1 -0.191198,-3.67212 18.227783,18.227783 0 0 1 1.92339,-7.19079 z M 24.685348,72.503762 a 18.227783,18.227783 0 0 1 -9.105904,1.903754 18.227783,18.227783 0 0 1 -1.759583,-0.183974 l 8.176247,52.298098 a 18.227783,18.227783 0 0 1 9.105903,-1.90376 18.227783,18.227783 0 0 1 1.758547,0.18402 z M 81.969706,29.514138 54.325915,83.481382 62.487691,91.674683 91.756705,34.536054 A 18.227783,18.227783 0 0 1 81.969706,29.514138 Z M 47.136173,97.517733 33.133927,124.85302 a 18.227783,18.227783 0 0 1 9.785967,5.0214 l 12.37754,-24.1639 z M 138.68873,81.62465 114.4592,93.904008 l 1.78645,11.427212 27.41486,-13.894244 a 18.227783,18.227783 0 0 1 -4.97178,-9.812326 z m -38.29534,19.4076 -57.289012,29.03388 a 18.227783,18.227783 0 0 1 4.972821,9.81337 L 102.17984,112.45998 Z M 32.718966,64.624142 a 18.227783,18.227783 0 0 1 -7.795906,7.759732 l 42.798421,42.965336 10.318233,-5.22914 z m 56.452364,56.670438 -10.31823,5.22914 21.68601,21.77076 a 18.227783,18.227783 0 0 1 7.79746,-7.76077 z" />
</svg>