<?xml version="1.0" encoding="UTF-8" standalone="no"?>
<!-- Uploaded to: SVG Repo, www.svgrepo.com, Generator: SVG Repo Mixer Tools -->

<svg
   viewBox="0 0 24 24"
   fill="none"
   version="1.1"
   id="svg1"
   xmlns="http://www.w3.org/2000/svg"
   xmlns:svg="http://www.w3.org/2000/svg">
  <defs
     id="defs1" />
  <path
     fill-rule="evenodd"
     clip-rule="evenodd"
     d="m 10.975,14.51 a 1.05,1.05 0 0 0 0,-1.485 2.95,2.95 0 0 1 0,-4.172 l 3.536,-3.535 a 2.9500495,2.9500495 0 1 1 4.172,4.172 l -1.093,1.092 a 1.0500536,1.0500536 0 0 0 1.485,1.485 l 1.093,-1.092 A 5.0501566,5.0501566 0 0 0 13.026,3.833 L 9.49,7.368 a 5.05,5.05 0 0 0 0,7.142 c 0.41,0.41 1.075,0.41 1.485,0 z m 2.05,-5.02 a 1.05,1.05 0 0 0 0,1.485 2.95,2.95 0 0 1 0,4.172 l -3.5,3.5 A 2.95,2.95 0 1 1 5.354,14.475 L 6.379,13.45 A 1.0500536,1.0500536 0 0 0 4.894,11.965 L 3.87,12.99 a 5.0501566,5.0501566 0 0 0 7.142,7.142 l 3.5,-3.5 a 5.05,5.05 0 0 0 0,-7.142 1.05,1.05 0 0 0 -1.485,0 z"
     id="path1"
     />
</svg>
